<svg width="35" height="30" viewBox="0 0 35 30" fill="none" xmlns="http://www.w3.org/2000/svg">
<path d="M34.6708 0.446049C34.6557 0.43334 34.6373 0.425309 34.6178 0.422949C34.5983 0.420589 34.5785 0.424004 34.5609 0.43277L34.4156 0.50681C34.3352 0.549061 34.2688 0.582459 34.2024 0.611833L32.899 1.18443C30.9994 2.01899 29.0361 2.88211 27.101 3.72753C24.8476 4.71419 22.1725 5.88152 19.4492 7.06012C19.1961 7.16997 19.0975 7.32288 19.0979 7.60616C19.1047 12.6791 19.1043 17.8369 19.1043 22.8249V25.4984C19.1043 25.5636 19.1043 25.6292 19.1043 25.6944C19.1043 25.8662 19.1075 26.0436 19.0971 26.2175C19.0902 26.2684 19.0648 26.3151 19.0259 26.3486C18.8613 26.4645 18.6907 26.5788 18.5257 26.6891C18.3325 26.8182 18.1326 26.9514 17.9402 27.0915C17.8597 27.1498 17.8195 27.1486 17.729 27.0842C17.4332 26.877 17.0851 26.6347 16.7258 26.409C16.6111 26.3362 16.5725 26.2645 16.5729 26.1233C16.5777 23.8369 16.5777 21.5119 16.5777 19.2638V15.8354C16.5777 13.1193 16.5777 10.3102 16.5797 7.54621C16.5797 7.37157 16.56 7.20579 16.319 7.10116C14.4402 6.28753 12.5333 5.45137 10.6892 4.64659L8.95326 3.88768L6.44476 2.79158C5.10615 2.20677 3.7678 1.6217 2.42972 1.03635C2.13839 0.908797 1.85229 0.778825 1.5497 0.64161C1.40846 0.577228 1.26521 0.512041 1.11874 0.446049C1.10118 0.438358 1.08178 0.435845 1.06284 0.438807C1.0439 0.441768 1.0262 0.45008 1.01182 0.462765C0.997448 0.475449 0.986996 0.491977 0.981699 0.510403C0.976402 0.528828 0.976481 0.548383 0.981925 0.566766C1.02297 0.694726 1.06321 0.820674 1.10264 0.94461C1.18714 1.21019 1.26682 1.46128 1.35092 1.71478C1.56418 2.35418 1.77906 3.00524 1.98709 3.63458C2.50376 5.20068 3.03813 6.8203 3.59424 8.40289C4.0099 9.58551 4.47305 10.773 4.92212 11.9214C5.09032 12.3523 5.26415 12.7982 5.43316 13.2376C5.60216 13.677 5.94419 13.906 6.42464 13.906C7.61571 13.906 8.80705 13.906 9.99866 13.906C10.086 13.9086 10.1735 13.9018 10.2594 13.8858C10.8352 13.7627 11.1229 13.2754 11.0493 12.5491C10.9958 12.026 10.5809 11.6578 10.0405 11.6542C9.20233 11.6486 8.38307 11.649 7.60525 11.6542C7.50506 11.6542 7.48453 11.6405 7.45717 11.5512C7.12037 10.443 6.77512 9.31712 6.44114 8.22866C6.23082 7.5446 6.02064 6.85906 5.8106 6.17205C5.6939 5.78938 5.58083 5.40751 5.46132 5.00109C5.42296 4.87233 5.3842 4.74115 5.34503 4.60756C5.37441 4.61882 5.40056 4.62888 5.42551 4.63975L6.7884 5.2204L7.6632 5.59301L9.08604 6.19941C10.7535 6.91083 12.4774 7.646 14.1767 8.36024C14.369 8.44072 14.4181 8.51717 14.4181 8.73124C14.4117 12.7242 14.4117 16.7843 14.4121 20.7104V24.0152C14.4121 25.0212 14.4121 26.0609 14.4121 27.0834C14.4121 27.2202 14.4346 27.3627 14.6052 27.4765C15.5927 28.1373 16.6067 28.8225 17.6127 29.5126C17.6784 29.5621 17.7578 29.5902 17.84 29.5931C17.924 29.5893 18.0048 29.5598 18.0714 29.5086C19.0492 28.8382 20.056 28.157 21.0636 27.483C21.1903 27.3981 21.2744 27.3011 21.2736 27.1031C21.2688 26.145 21.2696 25.1717 21.27 24.2289C21.27 23.9155 21.27 23.6021 21.27 23.2885C21.27 18.4062 21.27 13.5238 21.27 8.64151V8.61495C21.27 8.49182 21.2724 8.45802 21.3629 8.4214C21.8366 8.22946 22.3142 8.02424 22.7753 7.82587C22.9505 7.75102 23.1249 7.67618 23.2984 7.60133L24.1471 7.23918L30.2316 4.64659C30.2642 4.63291 30.2984 4.62043 30.335 4.60635C30.331 4.62446 30.3266 4.64096 30.3213 4.65705C30.1386 5.25795 29.9558 5.85859 29.7729 6.45895C29.2647 8.12726 28.7391 9.8523 28.2253 11.5496C28.1991 11.6365 28.1766 11.6518 28.072 11.651C27.3445 11.6457 26.6053 11.647 25.8902 11.6486H25.681C25.2625 11.6486 24.9692 11.7987 24.809 12.0912C24.7189 12.257 24.6617 12.4723 24.634 12.7491C24.6018 13.071 24.6879 13.3527 24.8834 13.5643C25.0931 13.7909 25.4126 13.9164 25.7594 13.9092C26.5566 13.8923 27.369 13.8955 28.1529 13.8987C28.5029 13.8987 28.8651 13.9019 29.2216 13.9015C29.7544 13.9015 30.0755 13.6871 30.2638 13.2074C30.395 12.873 30.531 12.5338 30.6622 12.2055C31.0167 11.3202 31.3832 10.4024 31.7007 9.48452C32.4009 7.4605 33.0906 5.39544 33.7573 3.39838C34.0229 2.60406 34.2888 1.80975 34.5549 1.01543C34.5863 0.921673 34.6144 0.828721 34.647 0.720881C34.6631 0.666961 34.6808 0.609419 34.7001 0.547049C34.705 0.52914 34.7048 0.51024 34.6996 0.492423C34.6944 0.474607 34.6845 0.458561 34.6708 0.446049Z" fill="#E41213"/>
</svg>
